<svg width="239" height="108" viewBox="0 0 239 108" fill="none" xmlns="http://www.w3.org/2000/svg">
<path d="M19.9074 21.636C19.8274 21.656 19.7574 21.686 19.6774 21.706C19.4974 21.986 19.2974 22.256 19.1174 22.546C18.6174 23.366 18.1474 24.196 17.6974 25.056C17.6974 25.056 7.51741 43.566 4.39741 49.876C-5.88259 70.716 2.40741 96.426 23.5674 105.806C25.5774 106.696 27.9474 105.866 28.9774 103.926L59.2274 47.176L53.4774 36.316C47.0674 24.206 33.0474 17.746 19.9074 21.646V21.636Z" fill="#2090CF"/>
<path d="M48.8876 42.9359L53.5976 57.6659L59.2376 47.1659L53.4576 36.2359C48.7876 27.4059 40.0576 21.5859 30.5776 20.5859C32.3576 21.0959 34.0976 21.9359 35.7676 23.0759C41.2476 26.8059 45.9776 33.7559 48.8976 42.9359H48.8876Z" fill="#005182"/>
<path d="M113.417 70.9757L119.287 59.8957C119.287 59.8957 105.467 33.7857 100.857 25.0757C88.6875 2.0857 60.2075 -6.6643 37.2075 5.4757C24.1775 12.3557 19.7175 21.6557 19.6875 21.7057C19.7775 21.6757 19.8675 21.6557 19.9575 21.6257C33.0975 17.7257 47.1175 24.1857 53.5275 36.2957L79.5875 85.5657C79.6775 85.5957 79.7675 85.6157 79.8575 85.6457C92.9975 89.5457 107.018 83.0857 113.427 70.9757H113.417Z" fill="#21A637"/>
<path d="M158.228 22.6159C152.398 20.2359 145.818 19.7559 139.468 21.7059V21.7459L113.418 70.9759C107.008 83.0859 92.9876 89.5459 79.8476 85.6459C79.7576 85.6159 79.6676 85.5959 79.5776 85.5659C79.5776 85.5659 84.0676 95.2459 97.0976 101.796C120.088 113.966 148.588 105.186 160.748 82.1959L179.188 47.3459L173.298 36.2859C169.948 29.9559 164.518 25.1759 158.218 22.5959L158.228 22.6159Z" fill="#FFDC00"/>
<path d="M233.947 49.8958L220.647 25.0758C208.477 2.08575 179.977 -6.68425 156.997 5.47575C152.637 7.58575 148.897 10.7258 145.997 13.6958C144.027 15.6458 142.207 17.7858 140.577 20.1158C139.887 21.0658 139.507 21.6658 139.487 21.6958C139.487 21.6958 139.487 21.6958 139.487 21.7058C145.837 19.7558 152.417 20.2358 158.247 22.6158C164.547 25.1858 169.977 29.9758 173.327 36.3058L209.377 103.956C210.407 105.896 212.777 106.726 214.787 105.836C235.957 96.4557 245.137 70.7957 233.957 49.9058L233.947 49.8958Z" fill="#21A637"/>
<path d="M173.787 57.6357L179.247 47.4057L173.297 36.3057C169.947 29.9757 164.517 25.1957 158.217 22.6157C156.117 21.7557 153.917 21.1457 151.657 20.8057C153.107 21.3257 154.517 22.0457 155.887 22.9857C161.367 26.7157 166.097 33.6657 169.017 42.8457L173.777 57.6257L173.787 57.6357Z" fill="#C6BA38"/>
</svg>
